<?xml version="1.0" encoding="utf-8"?>
<!-- Generator: Adobe Illustrator 27.6.1, SVG Export Plug-In . SVG Version: 6.00 Build 0)  -->
<svg version="1.1" id="Camada_1" xmlns="http://www.w3.org/2000/svg" xmlns:xlink="http://www.w3.org/1999/xlink" x="0px" y="0px"
	 viewBox="0 0 841.41 232.74" style="enable-background:new 0 0 841.41 232.74;" xml:space="preserve">
<style type="text/css">
	.st0{fill:#C5D55D;}
	.st1{fill:#04A6DF;}
	.st2{fill-rule:evenodd;clip-rule:evenodd;fill:#C5D55D;}
	.st3{fill-rule:evenodd;clip-rule:evenodd;fill:#04A6DF;}
	.st4{fill:#FFFFFF;}
</style>
<g>
	<g>
		<path class="st0" d="M371.67,144.97l14.37,18.31c-13.58,12.6-27.95,18.31-45.47,18.31c-36.02,0-59.25-22.44-59.25-66.93
			c0-51.58,31.89-68.7,60.43-68.7c16.34,0,33.47,6.69,45.87,25.59l-19.88,14.37c-8.07-10.43-16.54-16.54-27.36-16.54
			c-17.91,0-30.12,15.35-30.12,43.5c0,27.95,9.84,45.67,31.89,45.67C352.77,158.55,362.42,153.43,371.67,144.97z"/>
		<path class="st0" d="M434.86,76.46c14.96,0,44.29,4.72,44.29,50.39c0,37.4-20.87,55.32-47.24,55.32
			c-27.17,0-43.9-16.93-43.9-52.56C388.01,88.47,414.19,76.46,434.86,76.46z M451,129.81c0-21.26-4.53-33.46-17.32-33.46
			c-12.4,0-17.91,12.21-17.91,30.12c0,17.72,2.56,35.63,17.52,35.63C445.89,162.09,451,149.89,451,129.81z"/>
		<path class="st0" d="M507.7,36.5c9.06,0,15.36,6.5,15.36,14.37c0,8.46-6.3,14.37-15.36,14.37c-9.25,0-15.16-5.91-15.16-14.37
			C492.54,43,498.64,36.5,507.7,36.5z M494.11,179.22v-99.8h27.36v99.8H494.11z"/>
		<path class="st0" d="M541.75,179.22v-81.3l-1.77-18.5h22.83l1.97,11.81c6.69-9.25,16.54-14.76,29.72-14.76
			c19.49,0,31.3,11.02,31.3,34.65v68.11h-27.36v-62.8c0-10.83-1.77-18.9-12.21-18.9c-10.43,0-17.13,8.27-17.13,17.72v63.98H541.75z"
			/>
		<path class="st1" d="M729.74,79.42v82.28l1.77,17.52h-23.23l-1.38-10.63h-0.79c-6.5,9.05-16.73,13.39-27.56,13.39
			c-22.05,0-32.87-11.61-32.87-35.04V79.42h27.36v63.19c0,10.63,1.77,18.31,12.8,18.31c9.25,0,16.54-7.87,16.54-16.54V79.42H729.74z
			"/>
		<path class="st1" d="M777.77,220.56h-27.36V83.35c15.35-4.92,31.1-6.89,41.34-6.89c31.5,0,46.85,17.72,46.85,52.17
			c0,34.84-16.34,53.54-42.72,53.54c-6.69,0-13.58-1.97-18.11-4.33V220.56z M787.81,98.12c-2.95,0-6.5,0.39-10.04,1.18v57.09
			c4.33,2.76,9.65,3.94,13.78,3.94c15.16,0,19.49-15.75,19.49-30.12C811.04,111.31,804.93,98.12,787.81,98.12z"/>
	</g>
	<g>
		<path class="st2" d="M201.17,191.74c-8.2,9.14-17.74,16.78-28.18,22.72c-2.91,1.67-5.91,3.21-8.97,4.61
			c-9.31,4.28-19.18,7.28-29.31,8.94c-3.56,0.57-7.16,1-10.79,1.22c-10.64,0.71-21.46-0.08-32.15-2.49
			c-5.94-1.32-11.83-3.14-17.64-5.49c-2-0.81-4-1.68-5.98-2.61C15.33,193.81-9.5,133.52,8.74,79.49c0.3-0.91,0.63-1.81,0.96-2.71
			c0.37-1,0.75-2.02,1.15-3c0.13-0.36,0.27-0.72,0.42-1.06c0.73-1.79,1.51-3.58,2.34-5.35c0.43-0.92,0.87-1.83,1.33-2.74
			c0.42-0.84,0.87-1.68,1.3-2.51c0.27-0.5,0.53-1,0.81-1.49c14.93-27.02,39.53-45.79,67.37-54c0.02,0,0.02-0.01,0.04,0
			c0.79-0.24,1.6-0.46,2.4-0.69c1.84-0.48,3.67-0.94,5.53-1.35c6.66-1.44,13.45-2.29,20.27-2.54c1.42-0.05,2.83-0.08,4.25-0.07
			c16.11,0.04,32.46,3.52,48,10.83c10.57,4.96,20,11.35,28.2,18.81c0.49,0.96,0.13,2.11-0.65,2.75c-10.3-4.52-21.54-8.15-31.09-8.15
			c-4.59,0-8.67,0.83-12.13,2.47c-7.76,3.67-14.35,7.28-20.14,10.48l-0.04,0.02c-4.68,2.57-8.79,4.83-12.8,6.75
			c-10.97,0.05-21.75,2.7-31.44,7.63c-0.07,0.04-0.15,0.07-0.22,0.11c-13.24,6.8-24.43,17.86-31.23,32.35
			c-0.42,0.9-0.82,1.78-1.19,2.69c-14.02,33.35-0.06,72.11,32.03,88.84c0.87,0.46,1.73,0.89,2.63,1.31
			c30.42,14.3,66.05,4.65,85.48-21.23c2.82-3.75,5.3-7.83,7.36-12.24c3.46-7.37,5.53-15.06,6.28-22.74
			c5.48,14.92,9.27,31.61,11.94,45.63c0,0.03,0.01,0.07,0.02,0.11C199.89,179.48,200.79,186.91,201.17,191.74z"/>
		<g>
			<path class="st3" d="M211.94,178.19c-0.46,0.7-1.18,1.03-1.88,1.03c-0.13,0-0.26-0.01-0.38-0.03c-0.25-0.04-0.5-0.12-0.73-0.24
				c-0.11-0.07-0.22-0.13-0.32-0.21c-0.11-0.08-0.2-0.17-0.29-0.27c-0.09-0.11-0.16-0.21-0.24-0.33c-0.14-0.24-0.24-0.5-0.29-0.8
				c-3.98-23.14-9.82-49.95-19.53-70.24c-0.29-0.61-0.58-1.21-0.88-1.8c-0.59-1.18-1.2-2.35-1.82-3.49
				c-0.31-0.56-0.63-1.13-0.95-1.68c-0.32-0.56-0.64-1.1-0.96-1.64c-0.82-1.36-1.65-2.66-2.51-3.92c-0.34-0.51-0.69-1-1.05-1.49
				c-0.52-0.73-1.06-1.45-1.61-2.14c-0.73-0.92-1.48-1.82-2.24-2.67c-0.57-0.65-1.15-1.27-1.74-1.86c-0.2-0.2-0.39-0.4-0.6-0.6
				c-6.56-6.44-14.25-10.26-23.32-10.26c-1.18,0-2.38,0.07-3.61,0.2c-0.49,0.05-0.98,0.11-1.48,0.19c-0.25,0.04-0.5,0.08-0.75,0.12
				c-0.51,0.08-1.01,0.18-1.52,0.29c-0.25,0.06-0.51,0.11-0.77,0.17c-1.03,0.24-2.07,0.51-3.13,0.85c-0.27,0.08-0.53,0.16-0.8,0.25
				c-0.96,0.32-1.91,0.61-2.84,0.89c-1.4,0.41-2.75,0.77-4.07,1.09c-0.88,0.21-1.74,0.4-2.58,0.56c-0.42,0.08-0.84,0.16-1.25,0.24
				c-0.77,0.14-1.52,0.25-2.25,0.36c-0.11,0.02-0.22,0.03-0.33,0.04c-0.7,0.1-1.39,0.17-2.06,0.24c-0.07,0-0.15,0.01-0.21,0.02
				c-0.71,0.06-1.4,0.11-2.07,0.14c-0.08,0-0.15,0.01-0.22,0.01c-1.21,0.05-2.39,0.06-3.51,0.02c-0.51-0.02-1-0.05-1.49-0.08
				c-12.58-0.96-21.47-8.69-22.34-20.22c16.14-1.63,26.27-7.2,39.67-14.57c5.77-3.17,12.18-6.7,19.74-10.27
				c2.48-1.17,5.41-1.68,8.64-1.68c8.3,0,18.53,3.37,28.01,7.56c1.4,0.62,2.77,1.25,4.12,1.89c2.17,1.03,4.28,2.07,6.28,3.13
				c0.49,0.25,0.98,0.51,1.46,0.76c0.02,0.01,0.02,0.02,0.03,0.02c0.96,0.51,1.89,1.01,2.79,1.51c2.07,1.14,3.99,2.24,5.69,3.24
				c0.38,0.22,0.74,0.44,1.1,0.65c1.01,0.6,1.76,1.35,2.38,2.34C236.21,92.32,236.84,140.04,211.94,178.19z"/>
			<path class="st4" d="M84.59,53.61l0.01,0.09c0.07-0.04,0.15-0.07,0.22-0.11L84.59,53.61z M176.27,88.27
				c0.76,0.85,1.5,1.75,2.24,2.67C177.78,90.02,177.03,89.12,176.27,88.27z"/>
		</g>
	</g>
</g>
</svg>
